<mxfile host="app.diagrams.net" modified="2021-08-16T04:10:33.006Z" agent="5.0 (Windows NT 10.0; Win64; x64) AppleWebKit/537.36 (KHTML, like Gecko) Chrome/92.0.4515.131 Safari/537.36" etag="S8OCwX2EZUgRDJQFdmkd" version="14.9.6" type="github">
  <diagram id="jPKWzx5jQVZ4QaMfmU9v" name="Page-1">
    <mxGraphModel dx="1038" dy="547" grid="1" gridSize="10" guides="1" tooltips="1" connect="1" arrows="1" fold="1" page="1" pageScale="1" pageWidth="850" pageHeight="1100" math="0" shadow="0">
      <root>
        <mxCell id="0" />
        <mxCell id="1" parent="0" />
        <mxCell id="Rcd1EGnGX48i_8wPyZET-10" style="edgeStyle=orthogonalEdgeStyle;rounded=0;orthogonalLoop=1;jettySize=auto;html=1;exitX=0.5;exitY=1;exitDx=0;exitDy=0;entryX=0.5;entryY=0;entryDx=0;entryDy=0;" edge="1" parent="1" source="Rcd1EGnGX48i_8wPyZET-1" target="Rcd1EGnGX48i_8wPyZET-3">
          <mxGeometry relative="1" as="geometry" />
        </mxCell>
        <mxCell id="Rcd1EGnGX48i_8wPyZET-11" style="edgeStyle=orthogonalEdgeStyle;rounded=0;orthogonalLoop=1;jettySize=auto;html=1;exitX=0.5;exitY=1;exitDx=0;exitDy=0;entryX=0.5;entryY=0;entryDx=0;entryDy=0;" edge="1" parent="1" source="Rcd1EGnGX48i_8wPyZET-1" target="Rcd1EGnGX48i_8wPyZET-8">
          <mxGeometry relative="1" as="geometry" />
        </mxCell>
        <mxCell id="Rcd1EGnGX48i_8wPyZET-14" style="edgeStyle=orthogonalEdgeStyle;rounded=0;orthogonalLoop=1;jettySize=auto;html=1;exitX=0.5;exitY=1;exitDx=0;exitDy=0;entryX=0.5;entryY=0;entryDx=0;entryDy=0;" edge="1" parent="1" source="Rcd1EGnGX48i_8wPyZET-1" target="Rcd1EGnGX48i_8wPyZET-12">
          <mxGeometry relative="1" as="geometry" />
        </mxCell>
        <mxCell id="Rcd1EGnGX48i_8wPyZET-1" value="理控API" style="rounded=0;whiteSpace=wrap;html=1;" vertex="1" parent="1">
          <mxGeometry x="120" y="250" width="760" height="60" as="geometry" />
        </mxCell>
        <mxCell id="Rcd1EGnGX48i_8wPyZET-15" style="edgeStyle=orthogonalEdgeStyle;rounded=0;orthogonalLoop=1;jettySize=auto;html=1;exitX=0.5;exitY=1;exitDx=0;exitDy=0;entryX=0.5;entryY=0;entryDx=0;entryDy=0;" edge="1" parent="1" source="Rcd1EGnGX48i_8wPyZET-2" target="Rcd1EGnGX48i_8wPyZET-1">
          <mxGeometry relative="1" as="geometry" />
        </mxCell>
        <mxCell id="Rcd1EGnGX48i_8wPyZET-2" value="智慧灯杆系统" style="rounded=0;whiteSpace=wrap;html=1;" vertex="1" parent="1">
          <mxGeometry x="120" y="120" width="760" height="60" as="geometry" />
        </mxCell>
        <mxCell id="Rcd1EGnGX48i_8wPyZET-3" value="&amp;nbsp; &amp;nbsp; &amp;nbsp; &amp;nbsp; &amp;nbsp; &amp;nbsp; &amp;nbsp; &amp;nbsp; &amp;nbsp; &amp;nbsp; &amp;nbsp;灯杆" style="rounded=0;whiteSpace=wrap;html=1;" vertex="1" parent="1">
          <mxGeometry x="150" y="360" width="120" height="60" as="geometry" />
        </mxCell>
        <mxCell id="Rcd1EGnGX48i_8wPyZET-5" value="单灯控制器" style="ellipse;whiteSpace=wrap;html=1;aspect=fixed;" vertex="1" parent="1">
          <mxGeometry x="160" y="365" width="50" height="50" as="geometry" />
        </mxCell>
        <mxCell id="Rcd1EGnGX48i_8wPyZET-8" value="&amp;nbsp; &amp;nbsp; &amp;nbsp; &amp;nbsp; &amp;nbsp; &amp;nbsp; &amp;nbsp; &amp;nbsp; &amp;nbsp; &amp;nbsp; &amp;nbsp;灯杆" style="rounded=0;whiteSpace=wrap;html=1;" vertex="1" parent="1">
          <mxGeometry x="305" y="360" width="120" height="60" as="geometry" />
        </mxCell>
        <mxCell id="Rcd1EGnGX48i_8wPyZET-9" value="单灯控制器" style="ellipse;whiteSpace=wrap;html=1;aspect=fixed;" vertex="1" parent="1">
          <mxGeometry x="315" y="365" width="50" height="50" as="geometry" />
        </mxCell>
        <mxCell id="Rcd1EGnGX48i_8wPyZET-12" value="&amp;nbsp; &amp;nbsp; &amp;nbsp; &amp;nbsp; &amp;nbsp; &amp;nbsp; &amp;nbsp; &amp;nbsp; &amp;nbsp; &amp;nbsp; &amp;nbsp;灯杆" style="rounded=0;whiteSpace=wrap;html=1;" vertex="1" parent="1">
          <mxGeometry x="460" y="360" width="120" height="60" as="geometry" />
        </mxCell>
        <mxCell id="Rcd1EGnGX48i_8wPyZET-13" value="单灯控制器" style="ellipse;whiteSpace=wrap;html=1;aspect=fixed;" vertex="1" parent="1">
          <mxGeometry x="470" y="365" width="50" height="50" as="geometry" />
        </mxCell>
        <mxCell id="Rcd1EGnGX48i_8wPyZET-16" value="" style="rounded=0;whiteSpace=wrap;html=1;fillColor=none;" vertex="1" parent="1">
          <mxGeometry x="690" y="20" width="200" height="430" as="geometry" />
        </mxCell>
        <mxCell id="Rcd1EGnGX48i_8wPyZET-17" value="添加灯杆" style="rounded=1;whiteSpace=wrap;html=1;fillColor=none;" vertex="1" parent="1">
          <mxGeometry x="720" y="40" width="120" height="60" as="geometry" />
        </mxCell>
        <mxCell id="Rcd1EGnGX48i_8wPyZET-18" value="添加灯杆" style="rounded=0;whiteSpace=wrap;html=1;fillColor=none;" vertex="1" parent="1">
          <mxGeometry x="726" y="258" width="110" height="40" as="geometry" />
        </mxCell>
        <mxCell id="Rcd1EGnGX48i_8wPyZET-19" value="添加灯杆" style="rounded=0;whiteSpace=wrap;html=1;fillColor=none;" vertex="1" parent="1">
          <mxGeometry x="726" y="130" width="110" height="40" as="geometry" />
        </mxCell>
      </root>
    </mxGraphModel>
  </diagram>
</mxfile>
